<?xml version="1.0" encoding="utf-8"?>
<!-- Generator: Adobe Illustrator 22.0.0, SVG Export Plug-In . SVG Version: 6.00 Build 0)  -->
<svg version="1.1" id="Layer_1" xmlns="http://www.w3.org/2000/svg" xmlns:xlink="http://www.w3.org/1999/xlink" x="0px" y="0px"
	 viewBox="0 0 220 80" style="enable-background:new 0 0 220 80;" xml:space="preserve">
<style type="text/css">
	.st0{opacity:0.1;clip-path:url(#SVGID_2_);fill:#FFFFFF;}
</style>
<g id="Layer_2">
</g>
<g>
	<defs>
		<rect id="SVGID_1_" width="220" height="80"/>
	</defs>
	<clipPath id="SVGID_2_">
		<use xlink:href="#SVGID_1_"  style="overflow:visible;"/>
	</clipPath>
	<path class="st0" d="M13-10c16.5,0,30,13.5,30,30S29.5,50,13,50s-30-13.5-30-30S-3.5-10,13-10z M13-16C-6.9-16-23,0.1-23,20
		s16.1,36,36,36s36-16.1,36-36S32.9-16,13-16z M13-7C-1.9-7-14,5.1-14,20s12.1,27,27,27s27-12.1,27-27S27.9-7,13-7z M16,34.8V38h-3
		v-3c-3.1-0.1-6.3-0.8-9-2.2l1.4-4.9c2.9,1.1,6.7,2.3,9.7,1.6c3.4-0.8,4.2-4.3,0.3-6C12.6,22.2,4,21.1,4,13.8C4,9.7,7.2,6,13,5.2V2
		h3v3.1c2.2,0.1,4.6,0.4,7.3,1.3l-1.1,4.9c-2.3-0.8-4.8-1.5-7.3-1.4c-4.5,0.3-4.9,4.1-1.7,5.7C18.3,18,25,19.8,25,26.2
		C25,31.4,21,34.1,16,34.8z"/>
	<path class="st0" d="M89,21.8c7.8,0,14.2,6.4,14.2,14.2S96.8,50.2,89,50.2S74.8,43.8,74.8,36S81.2,21.8,89,21.8z M89,19
		c-9.4,0-17,7.6-17,17s7.6,17,17,17s17-7.6,17-17S98.4,19,89,19z M89,23.3c-7,0-12.8,5.7-12.8,12.8S82,48.8,89,48.8
		S101.8,43,101.8,36S96,23.3,89,23.3z M90.4,43v1.5H89v-1.4c-1.5,0-3-0.4-4.3-1l0.6-2.3c1.4,0.5,3.2,1.1,4.6,0.8
		c1.6-0.4,2-2,0.2-2.8c-1.3-0.6-5.4-1.1-5.4-4.6c0-1.9,1.5-3.7,4.2-4v-1.5h1.4v1.4c1,0,2.2,0.2,3.5,0.6l-0.5,2.3
		c-1.1-0.4-2.3-0.7-3.5-0.7c-2.1,0.1-2.3,1.9-0.8,2.7c2.4,1.1,5.6,2,5.6,5C94.7,41.4,92.8,42.7,90.4,43z"/>
	<path class="st0" d="M212,45.5c15.2,0,27.5,12.3,27.5,27.5s-12.3,27.5-27.5,27.5S184.5,88.2,184.5,73S196.8,45.5,212,45.5z M212,40
		c-18.2,0-33,14.8-33,33s14.8,33,33,33s33-14.8,33-33S230.2,40,212,40z M212,48.3c-13.7,0-24.8,11.1-24.8,24.8s11.1,24.8,24.8,24.8
		s24.8-11.1,24.8-24.8S225.7,48.3,212,48.3z M214.8,86.6v2.9H212v-2.7c-2.8,0-5.8-0.7-8.3-2l1.3-4.5c2.6,1,6.1,2.1,8.9,1.5
		c3.2-0.7,3.8-4,0.3-5.5c-2.6-1.2-10.4-2.2-10.4-8.9c0-3.7,2.9-7.1,8.2-7.8v-2.9h2.8v2.8c2,0.1,4.2,0.4,6.7,1.2l-1,4.5
		c-2.1-0.7-4.4-1.4-6.7-1.3c-4.1,0.2-4.5,3.8-1.6,5.3c4.7,2.2,10.8,3.9,10.8,9.8C223,83.5,219.3,86,214.8,86.6z"/>
	<path class="st0" d="M197,11.7c4.6,0,8.3,3.7,8.3,8.3s-3.7,8.3-8.3,8.3s-8.3-3.7-8.3-8.3S192.4,11.7,197,11.7z M197,10
		c-5.5,0-10,4.5-10,10s4.5,10,10,10c5.5,0,10-4.5,10-10S202.5,10,197,10z M197,12.5c-4.1,0-7.5,3.4-7.5,7.5s3.4,7.5,7.5,7.5
		s7.5-3.4,7.5-7.5S201.1,12.5,197,12.5z M197.8,24.1V25H197v-0.8c-0.9,0-1.8-0.2-2.5-0.6l0.4-1.4c0.8,0.3,1.9,0.6,2.7,0.5
		c1-0.2,1.2-1.2,0.1-1.7c-0.8-0.4-3.1-0.7-3.1-2.7c0-1.1,0.9-2.2,2.5-2.4V15h0.8v0.8c0.6,0,1.3,0.1,2,0.4l-0.3,1.4
		c-0.6-0.2-1.3-0.4-2-0.4c-1.2,0.1-1.3,1.1-0.5,1.6c1.4,0.7,3.3,1.2,3.3,3C200.3,23.2,199.2,23.9,197.8,24.1z"/>
	<path class="st0" d="M148-3.3c10.1,0,18.3,8.2,18.3,18.3s-8.2,18.3-18.3,18.3s-18.3-8.2-18.3-18.3S137.9-3.3,148-3.3z M148-7
		c-12.1,0-22,9.9-22,22s9.9,22,22,22s22-9.9,22-22S160.1-7,148-7z M148-1.5c-9.1,0-16.5,7.4-16.5,16.5s7.4,16.5,16.5,16.5
		s16.5-7.4,16.5-16.5S157.1-1.5,148-1.5z M149.8,24.1V26H148v-1.8c-1.9,0-3.9-0.5-5.5-1.3l0.8-3c1.8,0.7,4.1,1.4,5.9,1
		c2.1-0.5,2.5-2.6,0.2-3.7c-1.7-0.8-6.9-1.5-6.9-5.9c0-2.5,1.9-4.7,5.5-5.2V4h1.8v1.9c1.3,0,2.8,0.3,4.5,0.8l-0.7,3
		c-1.4-0.5-3-0.9-4.5-0.9c-2.7,0.2-3,2.5-1.1,3.5c3.1,1.5,7.2,2.6,7.2,6.5C155.3,22,152.9,23.6,149.8,24.1z"/>
	<path class="st0" d="M48,63.8c10.6,0,19.2,8.6,19.2,19.2s-8.6,19.2-19.2,19.2S28.8,93.6,28.8,83S37.4,63.8,48,63.8z M48,60
		c-12.7,0-23,10.3-23,23s10.3,23,23,23s23-10.3,23-23S60.7,60,48,60z M48,65.8c-9.5,0-17.3,7.7-17.3,17.3s7.7,17.3,17.3,17.3
		S65.3,92.5,65.3,83S57.5,65.8,48,65.8z M49.9,92.5v2H48v-1.9c-2,0-4-0.5-5.8-1.4l0.9-3.2c1.8,0.7,4.3,1.5,6.2,1
		c2.2-0.5,2.7-2.8,0.2-3.9c-1.8-0.8-7.2-1.5-7.2-6.2c0-2.6,2-5,5.7-5.5v-2h1.9v2c1.4,0,2.9,0.3,4.7,0.8l-0.7,3.2
		c-1.5-0.5-3.1-1-4.7-0.9c-2.9,0.2-3.1,2.6-1.1,3.7c3.3,1.5,7.6,2.7,7.6,6.8C55.7,90.3,53.1,92,49.9,92.5z"/>
	<path class="st0" d="M129,62.3c6.4,0,11.7,5.2,11.7,11.7s-5.2,11.7-11.7,11.7s-11.7-5.2-11.7-11.7S122.6,62.3,129,62.3z M129,60
		c-7.7,0-14,6.3-14,14s6.3,14,14,14s14-6.3,14-14S136.7,60,129,60z M129,63.5c-5.8,0-10.5,4.7-10.5,10.5s4.7,10.5,10.5,10.5
		s10.5-4.7,10.5-10.5S134.8,63.5,129,63.5z M130.2,79.8V81H129v-1.2c-1.2,0-2.5-0.3-3.5-0.8l0.5-1.9c1.1,0.4,2.6,0.9,3.8,0.6
		c1.3-0.3,1.6-1.7,0.1-2.3c-1.1-0.5-4.4-0.9-4.4-3.8c0-1.6,1.2-3,3.5-3.3V67h1.2v1.2c0.8,0,1.8,0.2,2.8,0.5l-0.4,1.9
		c-0.9-0.3-1.9-0.6-2.8-0.5c-1.7,0.1-1.9,1.6-0.7,2.2c2,0.9,4.6,1.6,4.6,4.1C133.7,78.4,132.1,79.5,130.2,79.8z"/>
</g>
</svg>
